Coordinates
version=1
nRows=25
nColumns=24
inDegrees=yes

Units are S.I. units (second, meters, Newtons, ...)
If the header above contains a line with 'inDegrees', this indicates whether rotational values are in degrees (yes) or radians (no).

endheader
time	pelvis_tilt	pelvis_list	pelvis_rotation	pelvis_tx	pelvis_ty	pelvis_tz	hip_flexion_r	hip_adduction_r	hip_rotation_r	knee_angle_r	ankle_angle_r	subtalar_angle_r	mtp_angle_r	hip_flexion_l	hip_adduction_l	hip_rotation_l	knee_angle_l	ankle_angle_l	subtalar_angle_l	mtp_angle_l	lumbar_extension	lumbar_bending	lumbar_rotation
1.5	6.1321878294879655	-0.31730976861577487	-3.0259955544544472	0.5995357689609274	1.0383286532632512	0.00271580100540959	7.058477495900171	-6.402922030719852	-5.942137180153406	-69.32768956588941	-2.270750581251101	-7.5185360168877705e-06	0.0	5.788745940095535	2.2609593400817163	-2.912377877055421	-16.071366788396176	2.8237569487462824	-1.6100115729448245e-06	0.0	-15.749352566415267	-3.8188433404234425	-2.278348262923391
1.517	6.2559263850372	-0.7189718933481968	-2.3752344004741093	0.5985023455252645	1.0411670166294478	0.00023112191061592388	9.153935996124755	-5.780618196448816	-6.24369321443858	-69.7497998468659	-0.6620884120132237	-7.47346053092465e-06	0.0	3.7477844612286786	2.078050147359375	-2.172685117125483	-14.60798703348824	3.186255141459437	-1.4887277521307977e-06	0.0	-15.887007447384335	-3.10845031465249	-3.2364006498581688
1.533	6.102786397462422	-0.8189350050411521	-1.9662157844858488	0.5963743382690062	1.0425305146496964	-0.0017818452456956322	11.485413940352013	-5.392180696547366	-6.238348300832327	-69.65617456984366	0.43872124203248225	-6.910410097776667e-06	0.0	2.3934497169298314	2.146883273709088	-1.7266021938700855	-13.604825087754328	3.576762663784632	-1.3680403246772035e-06	0.0	-15.881069231038323	-2.8460995738577353	-3.9387579391139993
1.55	6.033166723919692	-1.1224627616012606	-1.3382217119604214	0.5947652599429363	1.0438103139523056	-0.003652259613982222	13.4060580356993	-4.825683909246367	-6.574006141413943	-68.65279033603493	1.1699921123359078	-6.144797048233815e-06	0.0	0.8652074552540131	1.945633537819617	-1.082453583609292	-12.495628796827686	3.9847674743449337	-1.2645343721847774e-06	0.0	-15.875736031881964	-2.292281423030802	-4.527071189256404
1.567	6.019390569922645	-1.4356894042027448	-0.6375921409287738	0.5928131637344528	1.0448564671910257	-0.005518326311656613	15.162721298011913	-4.2500118437891965	-7.000424631562427	-66.72407134437549	1.6557937250583872	-5.372131496471722e-06	0.0	-0.7341161888089065	1.7058661033075329	-0.34204184388281605	-11.481092922265255	4.484386220519514	-1.0397901657122217e-06	0.0	-15.99481760790607	-1.7376304611413906	-5.32747807774188
1.583	5.945809348543444	-1.6703137141157085	-0.40070045669221455	0.5915019116339366	1.0452324720784547	-0.0066302253644077444	16.722774265473006	-3.735167156455182	-7.057014960716182	-64.3066453909419	1.9584261355326051	-4.581755501164915e-06	0.0	-2.271237388344848	1.5065738289563513	-0.07234991442586529	-10.382726952415418	4.9362493582070535	-8.082580188752912e-07	0.0	-15.954274269323157	-1.3166855565945825	-5.577669668157608
1.6	5.960594090285401	-1.71010109747096	-0.03778627552473198	0.5893767977187765	1.045333907758155	-0.007938938287801489	17.97627106044161	-3.5116395480473437	-7.282019314649963	-61.19583259703661	2.2095939076867	-4.201578800240867e-06	0.0	-3.8806637664474124	1.5034610023678245	0.41410229764037765	-9.205656318439246	5.2485826569047225	-7.753019271954563e-07	0.0	-16.21095134200287	-1.1047119955905973	-5.862571024035707
1.617	5.617669718473737	-1.7530273448697067	0.22839394342112643	0.586696332258199	1.0441268274186981	-0.008929584355845909	19.489530708113822	-3.392423770566185	-7.7254337723766575	-57.222763198740275	2.4495816419069776	-4.158271810274017e-06	0.0	-4.987211182418156	1.471811354864657	0.7898684141881765	-8.387316058699902	5.8115739811988965	-6.959297422402494e-07	0.0	-15.99187955694048	-0.9095717911373028	-6.016747260784531
1.633	5.365771849293571	-1.6027925957346671	0.2112833049975395	0.584656641160846	1.042559135208027	-0.009830071092299015	20.55870639752818	-3.4796969644229367	-8.036857969498836	-52.90733337115629	2.653593233088414	-4.587758081375534e-06	0.0	-6.164469143453953	1.6968488899392034	0.8288316436163133	-7.557363729939516	6.342074849220665	-5.372240248711996e-07	0.0	-15.797175604132828	-0.9149984922916182	-6.146043869675152
1.65	5.335727144225044	-1.43859482281029	0.22617762557723595	0.5827029552528767	1.041110315710255	-0.010330754926226308	20.989280787679885	-3.6376200581448814	-8.756350455443949	-47.7705656994556	2.6897973157882746	-5.259956968721478e-06	0.0	-7.708710989027314	1.8869051297749764	0.8231457981919093	-6.4741993738780295	6.738432499395463	-3.511922616583578e-07	0.0	-15.947931389044564	-0.954135981699122	-6.129959532574267
1.667	5.233393925907246	-1.161781751478742	0.22963251913811814	0.5809978158369441	1.038778990973216	-0.010853686782896183	21.266897591011396	-3.875300732543003	-9.69346240329469	-41.785526741799764	2.5338712496820923	-5.760999995586132e-06	0.0	-9.139671057864925	2.1973850931712122	0.8806565775651888	-5.699356792026593	7.391309380795153	-3.0864983552191965e-08	0.0	-16.004780183163902	-1.120315510592997	-6.175766524693661
1.683	4.880566081903515	-0.7709685489680396	0.147509659211067	0.5794623558588748	1.0356116887057756	-0.011161340198234941	21.609581913736417	-4.08742101502134	-10.454379237161511	-35.86671149743352	2.2764645359101214	-5.859125871240817e-06	0.0	-10.161273152840918	2.624994983352531	0.9046256261365763	-5.074141497614582	8.079458369542857	1.8282690104390107e-07	0.0	-15.73496725836169	-1.4131881707207457	-6.212514672311372
1.7	4.863283153615487	-0.4064517923199467	0.14076360001641017	0.5785928215764182	1.0329418020628602	-0.010994328189643486	21.2254247614889	-4.071509042887258	-11.042152821303109	-29.389762230110946	1.8991165282380187	-5.519985908087101e-06	0.0	-11.653863267580817	2.9858264753929666	1.0068782225972621	-4.325101007503824	8.676551113598624	3.2806595433738803e-07	0.0	-15.779973242710634	-1.7264861153806463	-6.311655254379061
1.717	4.8475806285182514	0.18968324586009763	0.05031577980642673	0.5769519850222075	1.0294998707767231	-0.010888338417386838	20.788260114608345	-4.0857042423333745	-10.871445061538427	-22.461827592244887	1.4715643695183334	-4.573941590233032e-06	0.0	-13.158955734610613	3.639420783364911	1.1202243787187673	-3.653011117463045	9.361310495245997	1.790814882958595e-07	0.0	-15.987945184190576	-2.2575907502935326	-6.155791476893057
1.733	4.628176158976739	0.6986414547196529	0.04668727059182761	0.5764735077483838	1.0256526612225132	-0.01069205243072357	20.407350916107212	-4.012091451889947	-10.141667479025667	-16.127819336469717	1.2061012273395881	-3.4938767730991135e-06	0.0	-14.430674971999	4.171822006576029	1.3608147493610996	-2.9794082630482652	10.004074691154617	-7.918032197648704e-08	0.0	-15.7590072005648	-2.649172197267758	-6.352798015394306
1.75	4.601910806212267	1.2865780303992367	0.017096934419035807	0.5761460398181991	1.0218843746740622	-0.010131371897442383	19.80598315813244	-4.046651904567537	-8.781875406870332	-10.25631458463928	1.0528002785826076	-2.3835003214717143e-06	0.0	-15.827151170110161	4.742936978107091	1.6402656280841281	-2.514891551253051	10.65000956734844	-9.298240236761902e-08	0.0	-15.749263442247269	-3.151569156323556	-6.602753286850653
1.767	4.575782981749128	1.7771573925826247	0.2304055208890313	0.5765670741102656	1.0176950341112014	-0.009638351285116468	19.163966414988824	-4.149440596456627	-7.252747135026025	-5.009863455035059	1.2458291266006996	-1.5939622660112154e-06	0.0	-17.424744770236565	5.088592192325446	2.2280328286252034	-1.9151020422662228	11.237518716433769	-5.1551020566217487e-08	0.0	-15.67546346089997	-3.4707000507433827	-7.004149196650373
1.783	4.549790656682181	2.1464657838226713	0.4422284663366436	0.5769052435702935	1.014016601633622	-0.00916263566676746	18.736315184224562	-4.286664689343507	-5.886784586035559	-1.3862024554919097	1.5344779505354802	-1.1050400757592892e-06	0.0	-18.73746607102739	5.283339295104371	2.834364076124461	-1.6937390025594448	11.820710835110662	4.352865749827614e-08	0.0	-15.556291062875516	-3.6287099710902795	-7.446934644752377
1.8	4.520393669385702	2.5314497016523214	0.656042227470047	0.5772307528701017	1.0106971952059385	-0.008441773176073938	18.665229794612603	-4.5116621184143755	-4.696093811021807	0.5334003319071601	1.9502855675598396	-8.61044456610762e-07	0.0	-19.75973567306672	5.458348933466498	3.4410035754258677	-2.062467783534851	12.467030777288706	4.543811123244697e-07	0.0	-15.554689258958106	-3.8533110420973844	-7.679776083073012
1.817	4.666327984157573	2.613709891473657	1.1156305884083224	0.5775986693064713	1.008218704372559	-0.00788896141361811	18.5851442640129	-4.510968825593615	-4.170996295569779	0.975511010155846	2.0619842272836535	-7.208205652496539e-07	0.0	-20.862996134682707	5.2168315197472905	4.239947654617477	-2.795149755533652	13.116125009735635	7.102323242259393e-07	0.0	-15.764671071984193	-3.551587842792995	-8.266355152004127
1.833	4.643794583937369	2.43859438478982	1.4266183518315247	0.5787702379171537	1.0061989218978298	-0.006656110025804926	18.96907247220157	-4.1893897831853	-3.9272360091129745	-0.24764954895044203	1.8934263352747824	-8.652502075575312e-07	0.0	-21.604783549280878	4.745392600472386	4.755532424741177	-3.7531929031140803	13.640704215835386	1.08976489354163e-06	0.0	-15.668433689377125	-3.118944803457358	-8.473982195741717
1.85	4.6582799183397805	2.224873459150117	1.445604006077135	0.5801511655772226	1.004856247535569	-0.0046215607657914505	19.69479189731739	-3.720634328622472	-3.5873341310468705	-2.8731661576234817	1.399600387232888	-1.3031950781431693e-06	0.0	-22.10657345500591	4.339568270973246	4.87575344699266	-5.282161445471843	14.100773524954404	1.5248936900632903e-06	0.0	-15.626874104017645	-2.6499921898740757	-8.38434827397572
1.867	4.614955612311964	1.9024949798406672	1.798682855886433	0.5823456905331679	1.0036914340348146	-0.003053793768075746	20.346021160459554	-3.2598207850244987	-3.8060669479270346	-5.9894861471417915	0.36028433116339076	-1.787928294523841e-06	0.0	-22.519394921524476	3.7109284576227277	5.25521767027348	-7.05117735973148	14.26999790284229	1.9389723347208956e-06	0.0	-15.420363777791584	-1.892534990949724	-8.77136406837346
1.883	4.339213983547594	1.7669858199703503	2.1259124479037017	0.5857219877356201	1.0031114255571587	-0.0013377331027070345	21.087645241797972	-3.0407663979946373	-3.951676329064295	-9.000339064882276	-0.6663606894148599	-2.2159136565303005e-06	0.0	-22.512346289393392	3.3031752489452	5.61499805283216	-9.044478630425363	14.079801701375185	2.3390656003696684e-06	0.0	-14.808877173631886	-1.4376620502386408	-8.830406362384284
1.9	4.366368973994528	1.5480908572979317	2.4483156279782783	0.5886466254193587	1.003114525243354	0.0006468797374115298	21.490210237948663	-2.765602466833061	-4.142247455538593	-12.119125077099522	-1.5483343711542648	-2.545835703409857e-06	0.0	-22.471064618464705	2.813567788715893	5.982630023442017	-11.616377795513944	13.688086353765444	2.8344859708207616e-06	0.0	-14.588485837267529	-0.7785725819339934	-9.006443907423892
